<?xml version="1.0" encoding="UTF-8"?>
<svg id="Layer_1" data-name="Layer 1" xmlns="http://www.w3.org/2000/svg" viewBox="0 0 200 200">
  <defs>
    <style>
      .cls-1 {
        fill: #ebebeb;
      }

      .cls-2 {
        fill: #435ba9;
      }

      .cls-3 {
        fill: #fff;
      }

      .cls-4 {
        fill: #4767b0;
      }
    </style>
  </defs>
  <g id="layer1">
    <polygon id="polygon2989" class="cls-2" points="174.84 25 161.83 170.78 103.33 187 45 170.81 32 25 174.84 25"/>
    <polygon id="polygon2991" class="cls-4" points="103.42 174.6 150.69 161.5 161.81 36.92 103.42 36.92 103.42 174.6"/>
    <polygon id="polygon2993" class="cls-1" points="103.42 91 61.8 91 63.4 108.88 103.42 108.88 103.42 91"/>
    <polygon id="polygon2995" class="cls-1" points="103.42 54.8 103.36 54.8 58.58 54.8 60.21 72.69 103.42 72.69 103.42 54.8"/>
    <polygon id="polygon2997" class="cls-1" points="64.2 117.82 66.71 145.9 103.34 156.07 103.42 156.05 103.42 137.44 103.34 137.46 83.43 132.09 82.15 117.82 72.48 117.82 64.2 117.82"/>
    <polygon id="polygon3005" class="cls-3" points="125.38 108.88 123.3 132.07 103.36 137.46 103.36 156.06 140.02 145.9 140.29 142.88 144.49 95.8 144.93 91 148.16 54.8 103.36 54.8 103.36 72.69 128.56 72.69 126.93 91 103.36 91 103.36 108.88 125.38 108.88"/>
  </g>
</svg>