<?xml version="1.0" encoding="UTF-8"?>
<svg id="Layer_1" data-name="Layer 1" xmlns="http://www.w3.org/2000/svg" viewBox="0 0 200 200">
  <defs>
    <style>
      .cls-1, .cls-2, .cls-3 {
        fill: none;
      }

      .cls-1, .cls-3 {
        stroke: #fff;
        stroke-miterlimit: 10;
        stroke-width: 3px;
      }

      .cls-2 {
        stroke: #000;
        stroke-linecap: round;
        stroke-linejoin: round;
        stroke-width: 2px;
      }

      .cls-4 {
        fill: #435ba9;
      }

      .cls-5 {
        fill: #4767b0;
      }

      .cls-3 {
        stroke-linecap: square;
      }
    </style>
  </defs>
  <g>
    <circle class="cls-2" cx="118" cy="90" r="2"/>
    <path class="cls-2" d="M113.45,81.7c.98-4.04,2.65-6.7,4.55-6.7,3.01,0,5.45,6.72,5.45,15s-2.44,15-5.45,15c-2.65,0-4.86-5.19-5.35-12.07"/>
    <path class="cls-2" d="M113.45,98.31c-3.92,1.35-7.06,1.38-8.08-.22-1.62-2.54,2.72-8.21,9.69-12.68,6.98-4.47,13.95-6.03,15.57-3.49,1.43,2.23-1.76,6.89-7.29,11.02"/>
    <path class="cls-2" d="M117.99,83.68c-5.89-3.11-11.23-3.95-12.62-1.77-1.62,2.54,2.72,8.21,9.69,12.68,6.98,4.47,13.95,6.03,15.57,3.49,1.1-1.72-.54-4.82-3.87-8.06"/>
  </g>
  <polygon id="polygon2989" class="cls-4" points="174.84 25 161.83 170.78 103.33 187 45 170.81 32 25 174.84 25"/>
  <polygon id="polygon2991" class="cls-5" points="103.42 174.6 150.69 161.5 161.81 36.92 103.42 36.92 103.42 174.6"/>
  <g>
    <circle class="cls-3" cx="103.95" cy="100" r="4"/>
    <path class="cls-1" d="M94.85,83.39c1.95-8.09,5.3-13.39,9.09-13.39,6.02,0,10.91,13.43,10.91,30s-4.88,30-10.91,30c-5.3,0-9.72-10.37-10.7-24.15"/>
    <path class="cls-1" d="M94.84,116.61c-7.84,2.7-14.12,2.75-16.16-.44-3.25-5.07,5.43-16.43,19.38-25.36,13.95-8.93,27.9-12.06,31.15-6.99,2.86,4.46-3.51,13.79-14.59,22.05"/>
    <path class="cls-1" d="M103.92,87.37c-11.79-6.21-22.45-7.9-25.24-3.54-3.25,5.07,5.43,16.43,19.38,25.36,13.95,8.93,27.9,12.06,31.15,6.99,2.2-3.43-1.08-9.63-7.73-16.12"/>
  </g>
</svg>