<?xml version="1.0" encoding="UTF-8"?>
<svg id="Layer_1" data-name="Layer 1" xmlns="http://www.w3.org/2000/svg" viewBox="0 0 200 200">
  <defs>
    <style>
      .cls-1 {
        fill: none;
        stroke: #000;
        stroke-linecap: round;
        stroke-linejoin: round;
        stroke-width: 2px;
      }

      .cls-2 {
        fill: #333431;
      }

      .cls-3 {
        fill: #f1dc4f;
      }

      .cls-4 {
        fill: #f7e28f;
      }
    </style>
  </defs>
  <g>
    <circle class="cls-1" cx="118" cy="90" r="2"/>
    <path class="cls-1" d="M113.45,81.7c.98-4.04,2.65-6.7,4.55-6.7,3.01,0,5.45,6.72,5.45,15s-2.44,15-5.45,15c-2.65,0-4.86-5.19-5.35-12.07"/>
    <path class="cls-1" d="M113.45,98.31c-3.92,1.35-7.06,1.38-8.08-.22-1.62-2.54,2.72-8.21,9.69-12.68,6.98-4.47,13.95-6.03,15.57-3.49,1.43,2.23-1.76,6.89-7.29,11.02"/>
    <path class="cls-1" d="M117.99,83.68c-5.89-3.11-11.23-3.95-12.62-1.77-1.62,2.54,2.72,8.21,9.69,12.68,6.98,4.47,13.95,6.03,15.57,3.49,1.1-1.72-.54-4.82-3.87-8.06"/>
  </g>
  <polygon id="polygon2989" class="cls-3" points="174.84 25 161.83 170.78 103.33 187 45 170.81 32 25 174.84 25"/>
  <polygon id="polygon2991" class="cls-4" points="103.42 174.6 150.69 161.5 161.81 36.92 103.42 36.92 103.42 174.6"/>
  <path class="cls-2" d="M128.65,107.41c-.65-4.03-3.28-7.42-11.07-10.58-2.71-1.24-5.72-2.13-6.62-4.18-.32-1.19-.36-1.87-.16-2.59.58-2.34,3.38-3.08,5.6-2.4,1.43.48,2.78,1.58,3.6,3.34,3.81-2.47,3.81-2.45,6.47-4.15-.97-1.51-1.5-2.21-2.13-2.86-2.29-2.56-5.42-3.88-10.42-3.78-.87.11-1.74.23-2.6.34-2.5.63-4.87,1.94-6.27,3.7-4.18,4.75-2.99,13.06,2.1,16.48,5.02,3.76,12.38,4.62,13.33,8.14.92,4.31-3.17,5.7-7.23,5.21-2.99-.62-4.65-2.14-6.45-4.91q-3.31,1.92-6.71,3.87c.81,1.76,1.66,2.56,3.01,4.09,6.4,6.49,22.42,6.18,25.3-3.65.12-.34.89-2.59.27-6.06ZM95.55,80.73h-8.27c0,7.14-.03,14.23-.03,21.37,0,4.55.24,8.71-.5,9.99-1.21,2.51-4.34,2.2-5.77,1.71-1.45-.71-2.19-1.73-3.05-3.17-.24-.41-.41-.73-.47-.76-2.24,1.37-4.48,2.75-6.72,4.12,1.12,2.29,2.76,4.28,4.87,5.58,3.15,1.89,7.39,2.47,11.81,1.45,2.88-.84,5.37-2.58,6.67-5.23,1.88-3.47,1.48-7.67,1.46-12.32.04-7.58,0-15.16,0-22.76h0Z"/>
</svg>